<svg width="35" height="49" viewBox="0 0 35 49" fill="none" xmlns="http://www.w3.org/2000/svg">
<path fill-rule="evenodd" clip-rule="evenodd" d="M7.35672 0.917765L8.49662 1.87684L7.10838 2.88906C5.20093 4.27914 2.78165 6.97813 1.91188 8.68595C0.139857 12.1647 0 13.4215 0 25.8567V37.5981H0.922543C1.83438 37.5981 1.84509 37.5612 1.84509 34.4614C1.84509 32.7363 1.97276 31.3248 2.12849 31.3248C2.28422 31.3248 3.02262 31.7399 3.76951 32.2473C4.51603 32.7547 5.4109 33.1699 5.7574 33.1699C6.34193 33.1699 6.33972 33.1171 5.72825 32.4411C5.36551 32.0403 4.34333 31.3613 3.45695 30.9321L1.84509 30.152V22.4684C1.84509 13.6939 2.23846 11.6846 4.63965 8.19811C5.76921 6.55819 9.0055 3.64849 9.69999 3.64849C9.92988 3.64849 10.7015 5.78658 10.7015 6.42387C10.7015 6.67222 10.0417 6.98072 9.23502 7.10987C7.5309 7.38221 5.47105 9.03319 4.79316 10.6698C4.26141 11.9532 4.67176 12.6924 5.30167 11.5872C5.53157 11.1838 6.30134 10.2506 7.01243 9.51291C8.81361 7.64495 10.8587 7.30877 13.1743 8.50107C17.3132 10.6325 17.2899 16.5578 13.1352 18.4446C12.3041 18.8221 11.22 19.1347 10.7259 19.1391C9.08779 19.1539 6.82903 17.7619 5.94856 16.1951C4.6987 13.971 3.8149 14.3076 4.98136 16.5634C6.71316 19.9126 11.8783 20.9624 14.7474 18.5483L15.8626 17.6099L16.1873 18.4708C16.3655 18.9443 16.6349 19.9129 16.7855 20.6233C17.2689 22.9023 17.5648 22.9739 18.0269 20.924C18.6985 17.9446 18.8062 17.8649 20.6952 18.9446C23.4595 20.5244 26.7401 20.0679 28.852 17.8088C30.1627 16.4069 30.8258 14.719 30.0657 14.719C29.7664 14.719 29.5214 14.9622 29.5214 15.2596C29.5214 16.2231 27.2796 18.3878 25.8327 18.8214C23.9274 19.3922 22.0115 18.966 20.4952 17.6346C17.3287 14.8544 18.1276 10.1015 22.0525 8.36527C24.709 7.18995 27.8265 8.29479 29.0409 10.8417C29.7996 12.4326 30.7801 12.6639 30.2247 11.1211C29.5062 9.12508 27.5243 7.44383 25.3607 6.99437C24.3585 6.78625 24.1913 6.60469 24.3005 5.84377C24.3721 5.34671 24.588 4.64484 24.7802 4.28431C25.1153 3.65587 25.1769 3.65587 26.2585 4.28431C27.9745 5.28102 30.6266 8.39036 31.6964 10.6598C32.6344 12.6496 32.6551 12.8662 32.7506 21.7303L32.8484 30.7713L31.2772 31.8632C30.1288 32.661 29.8738 32.9898 30.3299 33.0854C30.6731 33.1569 31.3713 32.9422 31.8812 32.6079L32.8089 32.0001L32.9178 34.7068C33.0233 37.3191 33.0591 37.4136 33.9496 37.4136H34.8721L34.9758 27.6346C35.1002 15.9275 34.7802 12.6547 33.1846 9.3118C32.0654 6.96669 29.7789 4.27398 27.4918 2.60713L26.3847 1.80009L27.4918 0.848759C28.5652 -0.0737843 28.5708 -0.0948179 27.6763 0.150947C27.1689 0.290067 26.3917 0.632146 25.9489 0.911123C25.257 1.34693 24.9463 1.33328 23.7348 0.813703C21.4543 -0.163823 14.7614 -0.279696 11.9539 0.610005C9.77083 1.30154 9.66197 1.30302 8.44828 0.656501C6.61389 -0.320657 6.04634 -0.185227 7.35672 0.917765ZM21.3849 2.20305C22.4097 2.42262 23.2481 2.66617 23.2481 2.74366C23.2481 3.35291 20.2897 8.05751 19.3933 8.87378C17.7918 10.3325 16.5917 10.2292 15.0803 8.50217C14.0559 7.33128 12.0864 4.11198 11.7163 3.00271C11.5643 2.54734 14.7836 1.86503 17.2335 1.83293C18.4918 1.81669 20.3602 1.98312 21.3849 2.20305ZM9.59445 10.1687C8.18775 10.7178 7.38034 11.9019 7.39215 13.3994C7.41761 16.6552 10.6945 18.104 12.944 15.8545C14.3053 14.4932 14.4064 12.613 13.1924 11.2336C12.3558 10.2831 10.6188 9.76901 9.59445 10.1687ZM22.3901 10.6749C20.9676 11.7938 20.5417 13.0429 21.0535 14.5939C21.5023 15.9537 22.9665 16.9331 24.5496 16.9331C26.0083 16.9331 27.6763 15.0888 27.6763 13.4765C27.6763 10.6978 24.5005 9.01474 22.3901 10.6749ZM6.64231 29.7103C7.55563 29.9996 9.29923 30.31 10.517 30.3993C12.7259 30.5617 12.727 30.5613 10.9513 30.2321C9.97269 30.0506 8.66083 29.724 8.03646 29.5066C7.41208 29.2889 6.46924 29.1269 5.94154 29.1472C5.18912 29.1756 5.34042 29.2974 6.64231 29.7103ZM24.6551 30.4698C24.9212 30.5764 25.2397 30.5631 25.3622 30.4406C25.4847 30.3181 25.267 30.231 24.878 30.2469C24.4481 30.2646 24.3607 30.352 24.6551 30.4698ZM13.0532 30.8801C13.1529 31.0414 11.9587 31.6495 10.3996 32.2318C5.81645 33.943 6.02679 34.5972 10.7015 33.1699C15.2393 31.7842 15.4913 32.2222 13.0924 37.3228C11.6263 40.4395 11.3063 41.5052 11.1879 43.6691L11.0458 46.27L12.7101 43.0658C14.6441 39.3432 16.9748 33.8411 16.9748 32.9983C16.9748 32.678 16.5648 32.2292 16.0637 32.0008C14.6976 31.3783 15.2987 30.9558 17.5501 30.9558C19.686 30.9558 20.041 31.3133 18.7815 32.1957L18.0051 32.7396L20.0417 38.7667C22.7894 46.9003 22.7396 46.5648 21.3738 47.7139C19.9974 48.8723 20.3114 48.9022 22.51 47.8232C24.0326 47.0759 24.1658 46.9006 24.1134 45.7164C24.0821 45.0061 23.1728 41.8137 22.0931 38.6221C20.7266 34.5825 20.2476 32.7016 20.5162 32.4329C20.7849 32.1643 22.1809 32.3233 25.1094 32.9569C27.4235 33.4573 29.373 33.8101 29.4424 33.7411C29.5114 33.6717 27.9383 33.0791 25.9467 32.4241C23.9551 31.7691 22.1676 31.0875 21.975 30.91C21.5377 30.5067 12.8045 30.4775 13.0532 30.8801Z" fill="white"/>
</svg>
